<?xml version="1.0" encoding="utf-8"?>
<!-- Generator: Adobe Illustrator 19.0.0, SVG Export Plug-In . SVG Version: 6.00 Build 0)  -->
<svg version="1.1" id="Layer_1" xmlns="http://www.w3.org/2000/svg" xmlns:xlink="http://www.w3.org/1999/xlink" x="0px" y="0px"
	 viewBox="0 176.4 600 248.6" style="enable-background:new 0 176.4 600 248.6;" xml:space="preserve">
<style type="text/css">
	.st0{fill:#1E2424;}
	.st1{fill:#B8BD2A;}
	.st2{fill:#59B7B2;}
</style>
<path id="XMLID_121_" class="st0" d="M80.4,277.7H73l-58.9,132h25.3l10.8-24H103l11,24h26.7L80.4,277.7z M60,364.7l17.1-35.2
	l17.1,35.2H60z"/>
<polygon id="XMLID_108_" class="st0" points="153,277.7 153,409.7 178,409.7 178,326.1 254,409.7 261,409.7 261,277.7 240,277.7 
	240,359.3 162.9,277.7 "/>
<path id="XMLID_116_" class="st0" d="M525.8,277.7h-7.4l-58.9,132h25.3l10.8-24h52.8l11,24h26.7L525.8,277.7z M505.4,364.7
	l17.1-35.2l17.1,35.2H505.4z"/>
<rect id="XMLID_123_" x="283" y="277.7" class="st0" width="24" height="132"/>
<polygon id="XMLID_125_" class="st0" points="324,277.7 334.3,277.7 384.1,332.3 435.5,277.7 443,277.7 443,409.7 421,409.7 
	421,329.6 386.8,364.7 381.6,364.7 348,326.8 348,409.7 324,409.7 "/>
<g id="XMLID_1_">
	<polygon id="XMLID_2_" class="st1" points="87.7,264.1 122.6,225.7 181.8,225.7 	"/>
	<polygon id="XMLID_3_" class="st2" points="84.4,259.4 119.6,222.7 108.6,190 	"/>
</g>
</svg>
