<?xml version="1.0" encoding="utf-8"?>
<!-- Generator: Adobe Illustrator 19.0.0, SVG Export Plug-In . SVG Version: 6.00 Build 0)  -->
<svg version="1.1" id="Layer_1" xmlns="http://www.w3.org/2000/svg" xmlns:xlink="http://www.w3.org/1999/xlink" x="0px" y="0px"
	 viewBox="0 0 600 248.6" style="enable-background:new 0 0 600 248.6;" xml:space="preserve">
<style type="text/css">
	.st0{fill:#59B7B2;}
	.st1{fill:#B8BD2A;}
</style>
<path id="XMLID_121_" class="st0" d="M80.4,101.3H73l-58.9,132h25.3l10.8-24H103l11,24h26.7L80.4,101.3z M60,188.3l17.1-35.2
	l17.1,35.2H60z"/>
<polygon id="XMLID_108_" class="st0" points="153,101.3 153,233.3 178,233.3 178,149.7 254,233.3 261,233.3 261,101.3 240,101.3 
	240,182.9 162.9,101.3 "/>
<path id="XMLID_116_" class="st0" d="M525.8,101.3h-7.4l-58.9,132h25.3l10.8-24h52.8l11,24h26.7L525.8,101.3z M505.4,188.3
	l17.1-35.2l17.1,35.2H505.4z"/>
<rect id="XMLID_123_" x="283" y="101.3" class="st0" width="24" height="132"/>
<polygon id="XMLID_125_" class="st0" points="324,101.3 334.3,101.3 384.1,155.9 435.5,101.3 443,101.3 443,233.3 421,233.3 
	421,153.2 386.8,188.3 381.6,188.3 348,150.4 348,233.3 324,233.3 "/>
<g id="XMLID_1_">
	<polygon id="XMLID_2_" class="st1" points="87.7,87.7 122.6,49.3 181.8,49.3 	"/>
	<polygon id="XMLID_3_" class="st0" points="84.4,83 119.6,46.3 108.6,13.6 	"/>
</g>
</svg>
